<svg width="23" height="17" viewBox="0 0 23 17" fill="none" xmlns="http://www.w3.org/2000/svg">
<path d="M19.6115 0H2.73165C1.22485 0 0 1.22485 0 2.73165V14.2684C0 15.7752 1.22485 17 2.73165 17H19.6069C21.1137 17 22.3385 15.7752 22.3385 14.2684V2.73627C22.3431 1.22947 21.1183 0 19.6115 0ZM21.0952 14.2684C21.0952 15.0865 20.4296 15.752 19.6115 15.752H2.73165C1.91354 15.752 1.24796 15.0865 1.24796 14.2684V2.73627C1.24796 1.91816 1.91354 1.25258 2.73165 1.25258H19.6069C20.425 1.25258 21.0905 1.91816 21.0905 2.73627V14.2684H21.0952Z" fill="#005FA3"/>
<path d="M14.088 8.3568L19.5513 3.45739C19.8056 3.22629 19.8287 2.83341 19.5976 2.57457C19.3665 2.32036 18.9736 2.29725 18.7147 2.52835L11.1808 9.29046L9.71094 7.97779C9.70632 7.97316 9.7017 7.96854 9.7017 7.96392C9.66934 7.93156 9.63699 7.90383 9.60001 7.8761L3.61904 2.52373C3.36021 2.29263 2.96733 2.31574 2.73623 2.57457C2.50512 2.83341 2.52823 3.22629 2.78707 3.45739L8.31507 8.39839L2.81018 13.552C2.56059 13.7877 2.54672 14.1806 2.78245 14.4348C2.90724 14.5642 3.07364 14.6336 3.24003 14.6336C3.39256 14.6336 3.54509 14.5781 3.66526 14.4672L9.25335 9.23961L10.7694 10.5939C10.8896 10.7002 11.0375 10.751 11.1854 10.751C11.3333 10.751 11.4858 10.6956 11.6014 10.5893L13.159 9.19339L18.7147 14.4718C18.8349 14.5874 18.9921 14.6428 19.1446 14.6428C19.311 14.6428 19.4728 14.5781 19.5976 14.4487C19.8333 14.1991 19.824 13.8016 19.5745 13.5659L14.088 8.3568Z" fill="#005FA3"/>
</svg>
